<mxfile host="app.diagrams.net" modified="2022-04-23T13:49:33.557Z" agent="5.0 (Windows)" etag="0uAJXo8m-LjOBkHMV68Z" version="17.4.6" type="github">
  <diagram id="C5RBs43oDa-KdzZeNtuy" name="Page-1">
    <mxGraphModel dx="1422" dy="752" grid="0" gridSize="10" guides="1" tooltips="1" connect="1" arrows="1" fold="1" page="1" pageScale="1" pageWidth="827" pageHeight="1169" background="none" math="0" shadow="1">
      <root>
        <mxCell id="WIyWlLk6GJQsqaUBKTNV-0" />
        <mxCell id="WIyWlLk6GJQsqaUBKTNV-1" parent="WIyWlLk6GJQsqaUBKTNV-0" />
        <mxCell id="fiqneHMCEUeW6jIyV7M1-0" value="&lt;div&gt;Début&lt;/div&gt;" style="ellipse;whiteSpace=wrap;html=1;" vertex="1" parent="WIyWlLk6GJQsqaUBKTNV-1">
          <mxGeometry x="354" y="30" width="120" height="80" as="geometry" />
        </mxCell>
        <mxCell id="fiqneHMCEUeW6jIyV7M1-4" value="ListeRecettes = tableau contenant les recettes présentes dans le fichier JSON" style="rounded=1;whiteSpace=wrap;html=1;" vertex="1" parent="WIyWlLk6GJQsqaUBKTNV-1">
          <mxGeometry x="331" y="252" width="166" height="70" as="geometry" />
        </mxCell>
        <mxCell id="fiqneHMCEUeW6jIyV7M1-5" value="ValeurRecherche = saisie de l&#39;utlisateur" style="shape=parallelogram;perimeter=parallelogramPerimeter;whiteSpace=wrap;html=1;fixedSize=1;" vertex="1" parent="WIyWlLk6GJQsqaUBKTNV-1">
          <mxGeometry x="311.5" y="142" width="205" height="78" as="geometry" />
        </mxCell>
        <mxCell id="fiqneHMCEUeW6jIyV7M1-8" value="&lt;div&gt;recette.name.includes(valeurRecherche)&lt;/div&gt;&lt;div&gt;= &lt;br&gt;&lt;/div&gt;&lt;div&gt;true&lt;br&gt;&lt;/div&gt;" style="rhombus;whiteSpace=wrap;html=1;" vertex="1" parent="WIyWlLk6GJQsqaUBKTNV-1">
          <mxGeometry x="44" y="370" width="283" height="221" as="geometry" />
        </mxCell>
        <mxCell id="fiqneHMCEUeW6jIyV7M1-9" value="&lt;div&gt;recette.description.includes(valeurRecherche)&lt;/div&gt;&lt;div&gt;=&lt;/div&gt;&lt;div&gt;true&lt;br&gt;&lt;/div&gt;" style="rhombus;whiteSpace=wrap;html=1;" vertex="1" parent="WIyWlLk6GJQsqaUBKTNV-1">
          <mxGeometry x="372" y="370" width="332" height="221" as="geometry" />
        </mxCell>
        <mxCell id="fiqneHMCEUeW6jIyV7M1-10" value="&lt;div&gt;testeIngredient &lt;br&gt;&lt;/div&gt;&lt;div&gt;= &lt;br&gt;&lt;/div&gt;&lt;div&gt;recette.ingredients.find(ingredient =&amp;gt; ingredient.ingredient.includes(valeurRecherche))&lt;br&gt;&lt;/div&gt;" style="rounded=1;whiteSpace=wrap;html=1;" vertex="1" parent="WIyWlLk6GJQsqaUBKTNV-1">
          <mxGeometry x="539" y="644" width="276" height="89" as="geometry" />
        </mxCell>
        <mxCell id="fiqneHMCEUeW6jIyV7M1-11" value="&lt;div&gt;testeIngredient &lt;br&gt;&lt;/div&gt;&lt;div&gt;= &lt;br&gt;&lt;/div&gt;&lt;div&gt;true&lt;/div&gt;" style="rhombus;whiteSpace=wrap;html=1;" vertex="1" parent="WIyWlLk6GJQsqaUBKTNV-1">
          <mxGeometry x="607" y="766" width="137" height="120" as="geometry" />
        </mxCell>
        <mxCell id="fiqneHMCEUeW6jIyV7M1-13" value="" style="endArrow=none;html=1;rounded=0;exitX=0.5;exitY=0;exitDx=0;exitDy=0;" edge="1" parent="WIyWlLk6GJQsqaUBKTNV-1" source="fiqneHMCEUeW6jIyV7M1-8">
          <mxGeometry width="50" height="50" relative="1" as="geometry">
            <mxPoint x="364" y="372" as="sourcePoint" />
            <mxPoint x="414" y="322" as="targetPoint" />
            <Array as="points">
              <mxPoint x="185" y="343" />
              <mxPoint x="414" y="343" />
            </Array>
          </mxGeometry>
        </mxCell>
        <mxCell id="fiqneHMCEUeW6jIyV7M1-14" value="" style="endArrow=classic;html=1;rounded=0;exitX=1;exitY=0.5;exitDx=0;exitDy=0;entryX=0;entryY=0.5;entryDx=0;entryDy=0;" edge="1" parent="WIyWlLk6GJQsqaUBKTNV-1" source="fiqneHMCEUeW6jIyV7M1-8" target="fiqneHMCEUeW6jIyV7M1-9">
          <mxGeometry width="50" height="50" relative="1" as="geometry">
            <mxPoint x="413" y="500" as="sourcePoint" />
            <mxPoint x="463" y="450" as="targetPoint" />
          </mxGeometry>
        </mxCell>
        <mxCell id="fiqneHMCEUeW6jIyV7M1-15" value="" style="endArrow=classic;html=1;rounded=0;exitX=0.5;exitY=1;exitDx=0;exitDy=0;entryX=0;entryY=0.5;entryDx=0;entryDy=0;" edge="1" parent="WIyWlLk6GJQsqaUBKTNV-1" source="fiqneHMCEUeW6jIyV7M1-8" target="fiqneHMCEUeW6jIyV7M1-16">
          <mxGeometry width="50" height="50" relative="1" as="geometry">
            <mxPoint x="413" y="500" as="sourcePoint" />
            <mxPoint x="186" y="627" as="targetPoint" />
            <Array as="points">
              <mxPoint x="186" y="760" />
            </Array>
          </mxGeometry>
        </mxCell>
        <mxCell id="fiqneHMCEUeW6jIyV7M1-16" value="True" style="shape=parallelogram;perimeter=parallelogramPerimeter;whiteSpace=wrap;html=1;fixedSize=1;" vertex="1" parent="WIyWlLk6GJQsqaUBKTNV-1">
          <mxGeometry x="311.5" y="730" width="120" height="60" as="geometry" />
        </mxCell>
        <mxCell id="fiqneHMCEUeW6jIyV7M1-18" value="" style="endArrow=classic;html=1;rounded=0;entryX=0.5;entryY=0;entryDx=0;entryDy=0;exitX=0.5;exitY=1;exitDx=0;exitDy=0;" edge="1" parent="WIyWlLk6GJQsqaUBKTNV-1" source="fiqneHMCEUeW6jIyV7M1-9" target="fiqneHMCEUeW6jIyV7M1-16">
          <mxGeometry width="50" height="50" relative="1" as="geometry">
            <mxPoint x="413" y="650" as="sourcePoint" />
            <mxPoint x="463" y="600" as="targetPoint" />
            <Array as="points">
              <mxPoint x="372" y="591" />
            </Array>
          </mxGeometry>
        </mxCell>
        <mxCell id="fiqneHMCEUeW6jIyV7M1-19" value="" style="endArrow=classic;html=1;rounded=0;entryX=0.5;entryY=0;entryDx=0;entryDy=0;exitX=1;exitY=0.5;exitDx=0;exitDy=0;" edge="1" parent="WIyWlLk6GJQsqaUBKTNV-1" source="fiqneHMCEUeW6jIyV7M1-9" target="fiqneHMCEUeW6jIyV7M1-10">
          <mxGeometry width="50" height="50" relative="1" as="geometry">
            <mxPoint x="413" y="680" as="sourcePoint" />
            <mxPoint x="463" y="630" as="targetPoint" />
            <Array as="points">
              <mxPoint x="702" y="565" />
              <mxPoint x="677" y="565" />
            </Array>
          </mxGeometry>
        </mxCell>
        <mxCell id="fiqneHMCEUeW6jIyV7M1-20" value="" style="endArrow=none;html=1;rounded=0;entryX=0.5;entryY=1;entryDx=0;entryDy=0;" edge="1" parent="WIyWlLk6GJQsqaUBKTNV-1" source="fiqneHMCEUeW6jIyV7M1-11" target="fiqneHMCEUeW6jIyV7M1-10">
          <mxGeometry width="50" height="50" relative="1" as="geometry">
            <mxPoint x="413" y="710" as="sourcePoint" />
            <mxPoint x="463" y="660" as="targetPoint" />
          </mxGeometry>
        </mxCell>
        <mxCell id="fiqneHMCEUeW6jIyV7M1-24" value="" style="endArrow=classic;html=1;rounded=0;entryX=0.5;entryY=1;entryDx=0;entryDy=0;exitX=0;exitY=0.5;exitDx=0;exitDy=0;" edge="1" parent="WIyWlLk6GJQsqaUBKTNV-1" source="fiqneHMCEUeW6jIyV7M1-11" target="fiqneHMCEUeW6jIyV7M1-16">
          <mxGeometry width="50" height="50" relative="1" as="geometry">
            <mxPoint x="413" y="710" as="sourcePoint" />
            <mxPoint x="463" y="660" as="targetPoint" />
            <Array as="points">
              <mxPoint x="372" y="826" />
            </Array>
          </mxGeometry>
        </mxCell>
        <mxCell id="fiqneHMCEUeW6jIyV7M1-25" value="False" style="shape=parallelogram;perimeter=parallelogramPerimeter;whiteSpace=wrap;html=1;fixedSize=1;" vertex="1" parent="WIyWlLk6GJQsqaUBKTNV-1">
          <mxGeometry x="615.5" y="924" width="120" height="60" as="geometry" />
        </mxCell>
        <mxCell id="fiqneHMCEUeW6jIyV7M1-26" value="" style="endArrow=classic;html=1;rounded=0;entryX=0.5;entryY=0;entryDx=0;entryDy=0;exitX=0.5;exitY=1;exitDx=0;exitDy=0;" edge="1" parent="WIyWlLk6GJQsqaUBKTNV-1" source="fiqneHMCEUeW6jIyV7M1-11" target="fiqneHMCEUeW6jIyV7M1-25">
          <mxGeometry width="50" height="50" relative="1" as="geometry">
            <mxPoint x="543" y="939" as="sourcePoint" />
            <mxPoint x="593" y="889" as="targetPoint" />
          </mxGeometry>
        </mxCell>
        <mxCell id="fiqneHMCEUeW6jIyV7M1-27" value="Non" style="text;html=1;strokeColor=none;fillColor=none;align=center;verticalAlign=middle;whiteSpace=wrap;rounded=0;" vertex="1" parent="WIyWlLk6GJQsqaUBKTNV-1">
          <mxGeometry x="317" y="452" width="60" height="30" as="geometry" />
        </mxCell>
        <mxCell id="fiqneHMCEUeW6jIyV7M1-28" value="Non" style="text;html=1;strokeColor=none;fillColor=none;align=center;verticalAlign=middle;whiteSpace=wrap;rounded=0;" vertex="1" parent="WIyWlLk6GJQsqaUBKTNV-1">
          <mxGeometry x="704" y="512" width="60" height="30" as="geometry" />
        </mxCell>
        <mxCell id="fiqneHMCEUeW6jIyV7M1-29" value="Non" style="text;html=1;strokeColor=none;fillColor=none;align=center;verticalAlign=middle;whiteSpace=wrap;rounded=0;" vertex="1" parent="WIyWlLk6GJQsqaUBKTNV-1">
          <mxGeometry x="675.5" y="888" width="60" height="30" as="geometry" />
        </mxCell>
        <mxCell id="fiqneHMCEUeW6jIyV7M1-30" value="Oui" style="text;html=1;strokeColor=none;fillColor=none;align=center;verticalAlign=middle;whiteSpace=wrap;rounded=0;" vertex="1" parent="WIyWlLk6GJQsqaUBKTNV-1">
          <mxGeometry x="185" y="626" width="60" height="30" as="geometry" />
        </mxCell>
        <mxCell id="fiqneHMCEUeW6jIyV7M1-32" value="Oui" style="text;html=1;strokeColor=none;fillColor=none;align=center;verticalAlign=middle;whiteSpace=wrap;rounded=0;" vertex="1" parent="WIyWlLk6GJQsqaUBKTNV-1">
          <mxGeometry x="371.5" y="614" width="60" height="30" as="geometry" />
        </mxCell>
        <mxCell id="fiqneHMCEUeW6jIyV7M1-33" value="Oui" style="text;html=1;strokeColor=none;fillColor=none;align=center;verticalAlign=middle;whiteSpace=wrap;rounded=0;" vertex="1" parent="WIyWlLk6GJQsqaUBKTNV-1">
          <mxGeometry x="541" y="796" width="60" height="30" as="geometry" />
        </mxCell>
        <mxCell id="fiqneHMCEUeW6jIyV7M1-34" value="" style="endArrow=none;html=1;rounded=0;exitX=0.5;exitY=0;exitDx=0;exitDy=0;" edge="1" parent="WIyWlLk6GJQsqaUBKTNV-1" source="fiqneHMCEUeW6jIyV7M1-4">
          <mxGeometry width="50" height="50" relative="1" as="geometry">
            <mxPoint x="364" y="270" as="sourcePoint" />
            <mxPoint x="414" y="220" as="targetPoint" />
          </mxGeometry>
        </mxCell>
        <mxCell id="fiqneHMCEUeW6jIyV7M1-35" value="" style="endArrow=none;html=1;rounded=0;entryX=0.5;entryY=1;entryDx=0;entryDy=0;exitX=0.5;exitY=0;exitDx=0;exitDy=0;" edge="1" parent="WIyWlLk6GJQsqaUBKTNV-1" source="fiqneHMCEUeW6jIyV7M1-5" target="fiqneHMCEUeW6jIyV7M1-0">
          <mxGeometry width="50" height="50" relative="1" as="geometry">
            <mxPoint x="360" y="170" as="sourcePoint" />
            <mxPoint x="410" y="120" as="targetPoint" />
          </mxGeometry>
        </mxCell>
      </root>
    </mxGraphModel>
  </diagram>
</mxfile>
